<svg width="164" height="164" viewBox="0 0 164 164" fill="none" xmlns="http://www.w3.org/2000/svg">
<path fill-rule="evenodd" clip-rule="evenodd" d="M67.5 0.500002C118.091 -2.96986 149.925 19.6968 163 68.5C166.742 105.177 153.242 133.343 122.5 153C89.2142 169.378 57.8809 166.378 28.5 144C0.763704 116.882 -6.40297 85.0483 7 48.5C19.778 23.0458 39.9447 7.0458 67.5 0.500002Z" fill="#FFBD17"/>
<path fill-rule="evenodd" clip-rule="evenodd" d="M68.5 6.50001C108.53 2.91636 136.697 19.2497 153 55.5C163.989 93.8725 153.156 124.372 120.5 147C81.3331 165.998 47.8331 158.831 20 125.5C3.23931 98.426 2.23931 70.7598 17 42.5C29.3724 23.6256 46.539 11.6256 68.5 6.50001Z" fill="#FDFCF9"/>
<path fill-rule="evenodd" clip-rule="evenodd" d="M18.5 85.5C17.5206 82.3752 17.1872 79.0419 17.5 75.5C23.3015 39.7427 44.3015 20.076 80.5 16.5C103.571 17.0345 121.905 26.5345 135.5 45C90.887 42.9243 51.8865 56.4243 18.5 85.5Z" fill="#FFBB09"/>
<path fill-rule="evenodd" clip-rule="evenodd" d="M120.5 55.5C127.321 54.3454 134.321 54.1787 141.5 55C140.437 56.1882 139.103 56.6882 137.5 56.5C136.07 56.4208 134.736 56.7542 133.5 57.5C129.418 55.6538 125.085 54.9872 120.5 55.5Z" fill="#5A4B47"/>
<path fill-rule="evenodd" clip-rule="evenodd" d="M120.5 55.5C125.085 54.9872 129.418 55.6538 133.5 57.5C134.736 56.7542 136.07 56.4208 137.5 56.5C100.36 74.8067 73.1935 102.807 56 140.5C47.3601 136.853 40.1934 131.353 34.5 124C37.8844 117.943 42.0511 112.443 47 107.5C47.7216 105.339 47.0549 103.672 45 102.5C39.9793 108.02 35.1459 113.686 30.5 119.5C25.6232 114.02 22.7898 107.686 22 100.5C49.3578 73.7412 82.1911 58.7412 120.5 55.5Z" fill="#1B0C08"/>
<path fill-rule="evenodd" clip-rule="evenodd" d="M118.5 58.5C120.705 58.8459 120.872 59.5126 119 60.5C107.989 63.0065 107.823 62.3398 118.5 58.5Z" fill="#CBC5C4"/>
<path fill-rule="evenodd" clip-rule="evenodd" d="M143.5 66.5C150.443 94.1576 142.443 116.991 119.5 135C103.696 145.298 86.6958 148.465 68.5 144.5C84.7177 109.951 109.718 83.9509 143.5 66.5Z" fill="#FFBB06"/>
<path fill-rule="evenodd" clip-rule="evenodd" d="M95.5 66.5C97.549 66.7058 97.883 67.5391 96.5 69C93.294 71.034 89.9603 72.8674 86.5 74.5C85.1667 73.5 85.1667 72.5 86.5 71.5C89.7235 70.0591 92.724 68.3924 95.5 66.5Z" fill="#E2DFDE"/>
<path fill-rule="evenodd" clip-rule="evenodd" d="M17.5 75.5C17.1872 79.0419 17.5206 82.3752 18.5 85.5C18.44 86.0431 18.1067 86.3764 17.5 86.5C16.1923 82.6853 16.1923 79.0187 17.5 75.5Z" fill="#FFE39B"/>
<path fill-rule="evenodd" clip-rule="evenodd" d="M70.5 80.5C72.6859 80.5106 73.5192 81.5106 73 83.5C69.2253 85.9737 65.7253 88.8071 62.5 92C59.6891 94.3307 58.1891 93.8307 58 90.5C62.0657 86.9228 66.2324 83.5894 70.5 80.5Z" fill="#E4E1E0"/>
</svg>
